<svg width="28" height="33" viewBox="0 0 28 33" fill="none" xmlns="http://www.w3.org/2000/svg">
          <path d="M11.1644 27.7716C11.1644 30.4862 12.8125 32.1343 13.8789 32.1343C14.9454 32.1343 16.5935 30.4862 16.5935 27.7716C16.5935 27.3838 14.0728 20.4034 14.0728 16.9132C16.7874 18.6583 22.0227 24.4753 22.3136 24.4753C24.6404 25.9295 26.7733 25.1539 27.4519 24.3783C27.8397 23.5058 27.355 21.276 24.9312 19.8217C24.6404 19.5309 17.3691 18.0766 14.2667 16.5254C17.3691 14.9742 24.6404 13.52 24.9312 13.2291C27.355 11.7749 27.8397 9.54503 27.4519 8.76943C26.7733 7.89688 24.6404 7.12129 22.3136 8.57554C22.1197 8.76943 16.8844 14.4895 14.0728 16.2346C14.0728 12.7444 16.5935 5.86094 16.5935 5.27924C16.5935 2.56465 14.9454 0.916504 13.8789 0.916504C12.8125 0.916504 11.1644 2.56465 11.1644 5.27924C11.1644 5.66704 13.3942 12.8413 13.685 16.2346C10.7766 14.3925 5.63821 8.76943 5.44431 8.57554C3.11752 7.12129 0.984625 7.89688 0.305976 8.76943C-0.0818231 9.54503 0.402926 11.7749 2.82667 13.2291C3.02057 13.423 10.4857 15.0712 13.3942 16.5254C10.4857 17.9797 3.02057 19.6278 2.82667 19.8217C0.402926 21.276 -0.0818231 23.5058 0.305976 24.3783C0.984625 25.1539 3.11752 25.9295 5.44431 24.4753C5.73516 24.1844 10.8735 18.7553 13.685 16.9132C13.3942 20.3065 11.1644 27.4807 11.1644 27.7716Z" fill="#deff7a"></path>
        </svg>