<svg width="905" height="783" viewBox="0 0 905 783" fill="none" xmlns="http://www.w3.org/2000/svg">
<path d="M452 783L301.312 522L452 593.5L602.688 522L452 783Z" fill="#0A369D"/>
<path d="M602.689 522L452 261L602.688 332.5L753.377 261L602.689 522Z" fill="#0A369D"/>
<path d="M300.689 522L150 261L300.688 332.5L451.377 261L300.689 522Z" fill="#0A369D"/>
<path d="M452.689 261L302 2.63472e-05L452.688 71.5L603.377 0L452.689 261Z" fill="#0A369D"/>
<path d="M753.689 261L603 2.63472e-05L753.688 71.5L904.377 0L753.689 261Z" fill="#0A369D"/>
<path d="M150.689 261L9.9253e-05 2.63472e-05L150.688 71.5L301.377 0L150.689 261Z" fill="#0A369D"/>
</svg>
